# vtk DataFile Version 4.2
3D Slicer output. SPACE=LPS
ASCII
DATASET POLYDATA
FIELD FieldData 2
MaterialNames 1 2 string
mtl1
NO_MATERIAL

MaterialLibraries 1 1 string
CJDIE_vtkMRMLModelNodeBC.mtl

POINTS 1058 float
0.0766708 0.0315936 0.0301352 0.0766708 0.0315936 0.0301352 0.0765257 0.0315633 0.0301364 
0.0760477 0.0315032 0.0301309 0.0754703 0.031386 0.0301385 0.0752362 0.031323 0.0301463 
0.0748984 0.0312922 0.030152 0.0745894 0.0312277 0.0301781 0.0741186 0.0311721 0.030155 
0.0740158 0.0311449 0.0301699 0.0734735 0.0310146 0.0301846 0.0729482 0.0309619 0.0302065 
0.07223 0.030812 0.0302419 0.0721979 0.0307953 0.0302457 0.0715379 0.0307378 0.0302368 
0.0712884 0.0306836 0.0302082 0.0710794 0.0306606 0.0302205 0.0705108 0.0305417 0.0302705 
0.0705108 0.0305417 0.0302705 0.0705003 0.0305415 0.0302701 0.0698991 0.030467 0.0302765 
0.0698281 0.0304635 0.0302767 0.0696196 0.0304443 0.0302773 0.0691329 0.0303586 0.0302913 
0.0686728 0.0302623 0.0303316 0.0685629 0.0302515 0.0303383 0.0680728 0.0301739 0.0303342 
0.0679893 0.0301875 0.0303728 0.0674637 0.0301165 0.0303851 0.0673796 0.0301166 0.030387 
0.0666667 0.0299674 0.0304289 0.0666134 0.0299658 0.0304317 0.0664202 0.0299143 0.0304426 
0.0659935 0.0299124 0.0304666 0.0655658 0.0298609 0.0304809 0.0652235 0.0298139 0.0304725 
0.0650311 0.0297735 0.0305012 0.0642675 0.0296582 0.0305262 0.0641722 0.0296673 0.0305259 
0.0636716 0.0296305 0.0306035 0.0634615 0.0296231 0.0306456 0.062665 0.0294565 0.0307698 
0.0619283 0.0294198 0.0307874 0.0618344 0.0294202 0.0307757 0.0615355 0.0294224 0.0307987 
0.0615355 0.0294224 0.0307987 0.0615043 0.0294187 0.0308026 0.0609117 0.0292945 0.0308581 
0.0607162 0.0292869 0.0308812 0.0606014 0.0292863 0.0309639 0.0599096 0.0292618 0.0309373 
0.0599096 0.0292618 0.0309373 0.0596807 0.029262 0.0309629 0.059307 0.0292025 0.0310067 
0.0589556 0.0291471 0.031053 0.058758 0.0291497 0.0310802 0.0581192 0.0291407 0.031149 
0.0580098 0.0291377 0.031145 0.0576012 0.0291292 0.0312194 0.0574974 0.0291076 0.0312204 
0.0573137 0.0290688 0.0312696 0.0567551 0.0290597 0.0313305 0.0567149 0.0290532 0.0313298 
0.0561878 0.0290494 0.0314002 0.0561878 0.0290494 0.0314002 0.0561809 0.0290501 0.0314014 
0.0556395 0.029047 0.0314804 0.0553876 0.0289943 0.0315157 0.0553744 0.0289917 0.0315115 
0.0548467 0.0289962 0.0316166 0.0544941 0.0290331 0.0316739 0.0543212 0.0290113 0.0316971 
0.0537365 0.0290051 0.031808 0.0536477 0.0290178 0.0318223 0.0532593 0.0289555 0.0318876 
0.0532593 0.0289555 0.0318876 0.0525115 0.0290349 0.0320264 0.0519432 0.0290259 0.0321349 
0.051854 0.02902 0.0321666 0.0515992 0.0290263 0.0322158 0.051586 0.0290337 0.0322145 
0.0511152 0.0290329 0.0323069 0.0508096 0.0290665 0.0323719 0.050671 0.0290549 0.0324314 
0.0501912 0.029105 0.0325436 0.0500178 0.0291183 0.0325765 0.0494604 0.0291005 0.032698 
0.0490476 0.0291357 0.0327893 0.048939 0.0291588 0.032809 0.0482091 0.0292365 0.0329844 
0.0481162 0.0292353 0.0330046 0.0479465 0.0292364 0.0330752 0.0478146 0.0292637 0.0331252 
0.0476043 0.0292813 0.0331763 0.0469798 0.0293453 0.0333531 0.0464245 0.0294017 0.0335043 
0.0463621 0.0294051 0.0335075 0.0459982 0.0294519 0.0336156 0.0456927 0.0294725 0.0337145 
0.045129 0.0295342 0.0339071 0.045129 0.0295342 0.0339071 0.0445639 0.0295945 0.0340621 
0.044332 0.0296065 0.0341348 0.0438401 0.0296647 0.0342963 0.0433133 0.0297178 0.0344651 
0.0433133 0.0297178 0.0344651 0.0429855 0.0297904 0.0345696 0.0425753 0.0297823 0.0347048 
0.042086 0.0298065 0.0349229 0.0416395 0.0298558 0.0350754 0.0412465 0.0299432 0.0352081 
0.0406364 0.0299264 0.0354492 0.0403903 0.0299681 0.0355686 0.0396813 0.0300234 0.0358227 
0.0394971 0.030058 0.0358714 0.0387057 0.0300398 0.0362048 0.0385097 0.0300416 0.0362592 
0.0377147 0.030133 0.0365666 0.037203 0.0301324 0.0367641 0.0370054 0.0301584 0.0368302 
0.0365672 0.0301145 0.037032 0.0362168 0.030152 0.0371902 0.0355567 0.0301959 0.0374467 
0.0354331 0.0301955 0.0374961 0.034966 0.0301859 0.0376655 0.0347729 0.030165 0.0377485 
0.0347138 0.0301648 0.0378183 0.0341689 0.0302023 0.038008 0.0339503 0.0302282 0.0380928 
0.0337887 0.0302395 0.03812 0.0335772 0.0302418 0.0381999 0.033083 0.030239 0.0383874 
0.0330026 0.0302304 0.0384214 0.0325219 0.0302763 0.0386331 0.0324182 0.0302753 0.0386674 
0.0320522 0.0303122 0.0387861 0.0315649 0.030307 0.03894 0.0312191 0.0303385 0.0390489 
0.0306298 0.0303959 0.0392528 0.030056 0.0304528 0.039418 0.0299298 0.030459 0.0394254 
0.0295068 0.0305209 0.0395712 0.0293393 0.0305265 0.0396171 0.0288221 0.030578 0.0397349 
0.0288221 0.030578 0.0397349 0.0286911 0.0306064 0.0397683 0.0283037 0.0306433 0.0398502 
0.0278974 0.0307232 0.0399307 0.0278974 0.0307232 0.0399307 0.0278451 0.0307269 0.0399388 
0.0277914 0.0307204 0.0399403 0.0270219 0.0308641 0.0400826 0.0266769 0.0309375 0.0401501 
0.0263812 0.0309736 0.0402306 0.0259029 0.0311124 0.0402697 0.0254028 0.0312527 0.0403402 
0.0253344 0.0312717 0.0403441 0.0246746 0.0314065 0.0403743 0.0245135 0.0314635 0.0403656 
0.0245135 0.0314635 0.0403656 0.0240944 0.0316076 0.0404028 0.0237536 0.0317479 0.0403579 
0.0236312 0.0317876 0.04035 0.0229798 0.0319688 0.0403484 0.0229792 0.0319695 0.0403485 
0.0225935 0.0321198 0.0403009 0.0219956 0.0323717 0.040284 0.0218685 0.0324334 0.0402422 
0.0214827 0.032585 0.0402187 0.0213199 0.0326309 0.0402084 0.0206691 0.0328929 0.0401052 
0.0202576 0.0330631 0.0400358 0.0202576 0.0330631 0.0400358 0.0200341 0.0331838 0.0399891 
0.0195612 0.0333447 0.0399114 0.0195564 0.0333488 0.039911 0.0188759 0.0336282 0.0397741 
0.018676 0.0336728 0.0397241 0.018676 0.0336728 0.0397241 0.018233 0.0339097 0.0396001 
0.0177095 0.0340536 0.0394868 0.0173208 0.0341836 0.0393228 0.0172976 0.0341921 0.0393201 
0.0167464 0.034424 0.0392305 0.0162964 0.0345906 0.0391103 0.0162271 0.0346142 0.0390809 
0.015855 0.0346807 0.0389874 0.0156376 0.034746 0.0389283 0.0155692 0.0347758 0.0389083 
0.0151044 0.0349173 0.0387882 0.0146516 0.0350503 0.0386688 0.0145658 0.0350772 0.0386525 
0.0140041 0.0351733 0.0384753 0.0140041 0.0351733 0.0384753 0.0137705 0.0352412 0.038403 
0.0133858 0.0352935 0.0382912 0.0133858 0.0352935 0.0382912 0.0132466 0.0353285 0.0382661 
0.0127743 0.0353972 0.0381464 0.012276 0.0354241 0.0380267 0.0120996 0.0354362 0.0380025 
0.0116973 0.0354768 0.0378952 0.0116318 0.035467 0.0378771 0.0116275 0.0354677 0.0378763 
0.0116275 0.0354677 0.0378763 0.0111567 0.0355116 0.0377367 0.0105924 0.0354952 0.0376339 
0.0105101 0.0354971 0.0376175 0.0102505 0.0354837 0.037533 0.0102126 0.035482 0.0375221 
0.01005 0.035451 0.0374727 0.00964317 0.035451 0.0374727 0.00925551 0.0353691 0.0373755 
0.00883516 0.0353374 0.0372864 0.00883516 0.0353374 0.0372864 0.00874312 0.0353279 0.0372671 
0.0085271 0.0352776 0.0372096 0.0085271 0.0352776 0.0372096 0.00800828 0.0351327 0.0371352 
0.00781158 0.0350532 0.0371025 0.00750372 0.0349814 0.0370704 0.007373 0.034937 0.0370407 
0.00673719 0.0347398 0.036956 0.0061234 0.0344263 0.0368611 0.00581456 0.0342264 0.0368283 
0.00547683 0.0340266 0.0367998 0.00547069 0.0340204 0.0367982 0.00466838 0.0333498 0.0367583 
0.00427719 0.0330647 0.0367772 0.0037463 0.0324203 0.0367852 0.00363793 0.0322104 0.0368075 
0.00306737 0.031231 0.0368497 0.00275645 0.0307864 0.0368753 0.00275645 0.0307864 0.0368753 
0.00266277 0.0306034 0.0368823 0.00251612 0.0300675 0.0369386 0.00240479 0.0297959 0.036967 
0.00228463 0.0295291 0.0369673 0.00217549 0.029048 0.03699 0.00216329 0.0288891 0.0370198 
0.00191782 0.0278628 0.0370374 0.00191699 0.0277626 0.0370223 0.00190173 0.0273785 0.0370506 
0.00190617 0.0267563 0.0370689 0.00190744 0.0266815 0.0370688 0.00192304 0.0264614 0.0370384 
0.00193838 0.0256745 0.0369953 0.00201718 0.0252612 0.0370165 0.0020422 0.0250795 0.0370056 
0.00204685 0.0250547 0.037008 0.00219962 0.0242703 0.0369446 0.00227853 0.0240669 0.036902 
0.00251115 0.0231092 0.0368213 0.00251426 0.0230765 0.0368148 0.00276624 0.0226522 0.0367634 
0.00307062 0.0220212 0.0367199 0.00333156 0.0215921 0.0366804 0.00336891 0.0215101 0.0366235 
0.00336891 0.0215101 0.0366235 0.00345953 0.0213332 0.0365926 0.00369659 0.0210516 0.0365444 
0.0038842 0.020806 0.0365586 0.0040127 0.020669 0.0365448 0.00444466 0.0200997 0.0364711 
0.00445642 0.0200778 0.0364603 0.00492754 0.0196266 0.036422 0.00536592 0.0192144 0.0363688 
0.0056233 0.0189863 0.036345 0.00603603 0.0187256 0.036333 0.00644341 0.018416 0.0362843 
0.00697126 0.0180703 0.036249 0.00697126 0.0180703 0.036249 0.00697526 0.0180678 0.0362482 
0.00750391 0.0178209 0.036231 0.00800827 0.0175387 0.0361628 0.00863896 0.0173178 0.0361399 
0.00866229 0.0173113 0.0361445 0.00867987 0.0173072 0.0361436 0.0088002 0.0172746 0.036143 
0.0088002 0.0172746 0.036143 0.00923767 0.017092 0.0360846 0.00967063 0.0169774 0.0360767 
0.0100557 0.0169417 0.0360651 0.0098403 0.0169204 0.0360669 0.0101512 0.0168834 0.0360549 
0.0102285 0.0168655 0.0360662 0.0111502 0.0167113 0.0359609 0.0115977 0.016618 0.0359282 
0.0119148 0.016617 0.0358921 0.0119335 0.0166175 0.0358979 0.0126447 0.0166355 0.0358196 
0.0126447 0.0166355 0.0358196 0.0129802 0.0166571 0.0357694 0.0129989 0.0166565 0.0357688 
0.0136342 0.0166653 0.0356876 0.0137733 0.0166708 0.0356737 0.0142723 0.0167511 0.0356362 
0.0143039 0.0167538 0.0356499 0.0144778 0.0168021 0.0356361 0.0147118 0.016855 0.0356082 
0.0147246 0.016857 0.0356062 0.0153328 0.0169852 0.035496 0.0153374 0.0169855 0.0354928 
0.0158996 0.0171578 0.0354203 0.0159681 0.0171874 0.035413 0.0163425 0.0173093 0.0353465 
0.0163425 0.0173093 0.0353465 0.0166492 0.0174422 0.0353136 0.016857 0.017527 0.0353172 
0.0169039 0.0175582 0.0353047 0.0177173 0.017994 0.0351545 0.0177988 0.0180676 0.0351472 
0.0182245 0.0182683 0.0350559 0.0185698 0.0184782 0.0350325 0.0187085 0.0186002 0.0350265 
0.0191136 0.0189371 0.0349342 0.019675 0.0195205 0.034808 0.0197849 0.0196251 0.0347726 
0.0203674 0.0202145 0.0346422 0.0205708 0.0205274 0.034618 0.0206851 0.0206662 0.0345918 
0.0207402 0.0207326 0.0345694 0.0209469 0.0210931 0.0345206 0.0210199 0.0212062 0.0345034 
0.0212439 0.0215335 0.0344132 0.0215185 0.0220716 0.034336 0.0217038 0.0226161 0.0342715 
0.021854 0.0229461 0.0342004 0.0218594 0.0229798 0.0341858 0.0219857 0.0233967 0.034117 
0.0220487 0.0235564 0.0340751 0.0220553 0.0235782 0.0340683 0.0221377 0.0240722 0.0339982 
0.0222476 0.0245585 0.0338686 0.0222872 0.0251049 0.0337819 0.0222826 0.0252211 0.0337636 
0.0222826 0.0252211 0.0337636 0.0222823 0.0252258 0.0337632 0.0222823 0.0252258 0.0337632 
0.0222973 0.0257851 0.0336518 0.0223125 0.0260905 0.033555 0.0222444 0.0265776 0.0333856 
0.0220949 0.0273385 0.0332786 0.0220792 0.027395 0.0332738 0.0219637 0.0279268 0.0330997 
0.0219032 0.0281281 0.0330217 0.0218704 0.0283058 0.0330338 0.0216556 0.028738 0.0328668 
0.0216556 0.028738 0.0328668 0.0216289 0.0288256 0.0328416 0.021397 0.0293701 0.0327049 
0.021307 0.0295383 0.0326644 0.0212697 0.0296378 0.0326353 0.0211883 0.0298094 0.0325713 
0.0208911 0.0302446 0.0324062 0.0206737 0.0306117 0.0323111 0.0206737 0.0306117 0.0323111 
0.0205413 0.0308569 0.0322178 0.0203806 0.0311003 0.0321362 0.0203806 0.0311003 0.0321362 
0.020361 0.0311221 0.0321324 0.0199852 0.0315781 0.0320046 0.0199852 0.0315781 0.0320046 
0.0195291 0.0320882 0.0318371 0.0194649 0.032145 0.0317531 0.0193692 0.0322529 0.0316635 
0.0189535 0.0326812 0.03157 0.0187667 0.0329293 0.0315412 0.0186175 0.0330581 0.0314963 
0.0183556 0.0332682 0.031379 0.0181238 0.0334553 0.0313067 0.0181238 0.0334553 0.0313067 
0.0180304 0.0335233 0.0312675 0.017514 0.0339425 0.0311158 0.0172266 0.034154 0.0310542 
0.0172266 0.034154 0.0310542 0.0171362 0.0342257 0.0310226 0.0167818 0.0344491 0.0309099 
0.0164662 0.0346107 0.0308406 0.0159344 0.0349167 0.030693 0.0156404 0.0350958 0.0306096 
0.0151035 0.0353081 0.0305148 0.0150829 0.0353175 0.0305156 0.0150829 0.0353175 0.0305156 
0.0142308 0.0356661 0.0302919 0.0140502 0.0357279 0.0302626 0.013936 0.0357579 0.0302386 
0.0129295 0.0360462 0.0301494 0.0129083 0.0360507 0.030151 0.0124817 0.0361552 0.0300924 
0.0121794 0.0362204 0.0300689 0.0118388 0.0362613 0.0300132 0.0113182 0.0363035 0.0299707 
0.0111902 0.0362983 0.029977 0.0107539 0.0363167 0.0299458 0.0106327 0.0363183 0.0299473 
0.0104441 0.0363102 0.0299113 0.00966686 0.0362738 0.0298798 0.00946578 0.0362224 0.0298768 
0.00943228 0.0362155 0.029868 0.00874694 0.0360912 0.0298641 0.0081692 0.0359546 0.0298762 
0.00797515 0.0359024 0.0298687 0.00763459 0.0357815 0.0298439 0.00744972 0.0356964 0.0298494 
0.00712385 0.0355957 0.0299139 0.00684412 0.0354488 0.0299151 0.0064738 0.0353031 0.029886 
0.00588822 0.0349721 0.0299102 0.00521813 0.0345315 0.0299572 0.00505315 0.0344105 0.0299459 
0.00464122 0.0340714 0.02996 0.00459567 0.0340186 0.0299685 0.0040172 0.0334091 0.0299358 
0.00383971 0.0333289 0.0299763 0.00399351 0.0333711 0.0299273 0.00338758 0.0327456 0.0300134 
0.00322946 0.0324738 0.0299961 0.00298707 0.0322414 0.0300337 0.00298707 0.0322414 0.0300337 
0.0029608 0.0322073 0.0300299 0.00269743 0.0318056 0.0300202 0.00268467 0.031782 0.0300226 
0.00244712 0.0313519 0.0300074 0.00232034 0.0311087 0.0300292 0.00224057 0.0309504 0.0300465 
0.00210249 0.0306971 0.0300264 0.0019413 0.0303533 0.0300331 0.00169722 0.0298065 0.0300301 
0.00169722 0.0298065 0.0300301 0.00168845 0.0297885 0.0300278 0.00143649 0.0290162 0.0300547 
0.00139527 0.0288653 0.0300469 0.00123567 0.0282868 0.0300511 0.00121575 0.0281041 0.0300247 
0.00119376 0.0277836 0.0300224 0.00103533 0.0272835 0.03004 0.00101229 0.0271544 0.0300596 
0.000962178 0.0266259 0.0300815 0.000949823 0.0264695 0.0300633 0.000969083 0.0257132 0.0300489 
0.000972953 0.0255829 0.0300673 0.00105392 0.0244338 0.0301124 0.00100073 0.0245134 0.0301352 
0.00102858 0.0240012 0.0301286 0.00102485 0.0239089 0.0301255 0.0011052 0.0233065 0.0301709 
0.00113206 0.0230883 0.0301595 0.00131371 0.0224663 0.0302023 0.00132924 0.0223683 0.0302142 
0.00143874 0.021898 0.0302122 0.00147061 0.021799 0.0302197 0.00165065 0.0212193 0.0302421 
0.00180873 0.0207507 0.0302595 0.00197974 0.0204078 0.0302867 0.00220291 0.0198372 0.0303001 
0.00230088 0.0196145 0.0302925 0.00251337 0.0192254 0.0302968 0.00251337 0.0192254 0.0302968 
0.0025169 0.0192167 0.0302967 0.00281402 0.0186302 0.0303294 0.00289087 0.0185209 0.0303411 
0.00318757 0.0179935 0.0303637 0.00323063 0.0179407 0.0303573 0.00352572 0.0174627 0.0303792 
0.00368616 0.0171999 0.0303737 0.00368616 0.0171999 0.0303737 0.00403794 0.0167709 0.0303883 
0.00404698 0.0167469 0.0303866 0.00406514 0.0167201 0.0303852 0.00445452 0.0161971 0.030417 
0.00466707 0.015917 0.0304076 0.00466707 0.015917 0.0304076 0.00509754 0.0154416 0.0304081 
0.00520737 0.0153709 0.0303893 0.00577336 0.0148022 0.030413 0.00579001 0.0147781 0.0304136 
0.00581163 0.0147057 0.0304255 0.00610967 0.0144915 0.0304687 0.00612248 0.0144824 0.0304674 
0.00642543 0.0141847 0.0304315 0.00705954 0.0137193 0.0304713 0.00713113 0.0136914 0.0304819 
0.0075503 0.0133715 0.030475 0.00789174 0.0131916 0.0304637 0.00802055 0.0130689 0.0304816 
0.00836488 0.012829 0.0305383 0.00871554 0.0126818 0.0305331 0.00879365 0.0126361 0.0305247 
0.00915014 0.0124399 0.0305302 0.00915014 0.0124399 0.0305302 0.00928426 0.0123691 0.0305243 
0.00984174 0.0121701 0.0305636 0.00990899 0.0121365 0.0305598 0.0105402 0.011941 0.0305774 
0.0109069 0.0118231 0.0306485 0.0110184 0.0117883 0.0306305 0.0114992 0.0116285 0.0306443 
0.0118034 0.0116086 0.0306745 0.0126174 0.011471 0.0307102 0.0126962 0.011455 0.030712 
0.0134075 0.011423 0.0307939 0.0135498 0.0114082 0.0307878 0.0140303 0.0114027 0.0307976 
0.0140589 0.0114077 0.0307852 0.0143932 0.011378 0.0308111 0.0148731 0.0114104 0.0308933 
0.0150402 0.0114079 0.0309098 0.0153027 0.0114126 0.030961 0.0153845 0.0113938 0.0309752 
0.0161755 0.0114754 0.0309135 0.0167621 0.011561 0.0309409 0.0168469 0.0115674 0.0309612 
0.0174562 0.011622 0.0309959 0.0182218 0.0117257 0.0310316 0.0182651 0.0117329 0.0310373 
0.018582 0.0117861 0.0310332 0.0191662 0.0119182 0.0310546 0.0196157 0.0120587 0.031047 
0.0196157 0.0120587 0.031047 0.0197209 0.0120967 0.0310442 0.020374 0.0122066 0.0310599 
0.0208776 0.0123559 0.0310544 0.021349 0.0125077 0.0310589 0.0213039 0.0124878 0.0310889 
0.0214859 0.0125675 0.0311124 0.0216922 0.012617 0.0310786 0.0223023 0.0128353 0.0310694 
0.0226433 0.0129893 0.0310103 0.0230101 0.0131207 0.0310564 0.0232773 0.0132516 0.0310456 
0.0234048 0.0133444 0.0310356 0.0237452 0.0134657 0.0310316 0.024262 0.0137404 0.030977 
0.0243232 0.0137733 0.0309888 0.0246796 0.0139675 0.030949 0.02522 0.0143237 0.0309707 
0.0254977 0.0145002 0.0309401 0.025896 0.0146935 0.0309405 0.0261349 0.0149035 0.0309028 
0.0262282 0.0149679 0.0308931 0.0266969 0.0153283 0.0309128 0.0268052 0.0154155 0.0309203 
0.0273172 0.0158329 0.0308442 0.0278788 0.016347 0.0307959 0.0278863 0.016355 0.0307937 
0.0283597 0.0168576 0.0308143 0.0283849 0.0168849 0.0308065 0.0285296 0.0170643 0.0307778 
0.0288126 0.0173771 0.0307229 0.0288178 0.0173826 0.0307209 0.0292263 0.0178273 0.0307245 
0.0292635 0.0179346 0.0306768 0.0296176 0.0183219 0.0306756 0.0298584 0.018693 0.0306378 
0.0298584 0.018693 0.0306378 0.0299357 0.0188159 0.0306128 0.0300692 0.0190067 0.0305689 
0.030501 0.0196778 0.0305598 0.0308359 0.0202092 0.0305366 0.031045 0.0205706 0.0305106 
0.0311786 0.0208526 0.0305311 0.0312028 0.0208859 0.0305349 0.0312028 0.0208859 0.0305349 
0.0315409 0.0215306 0.0304853 0.0316794 0.021854 0.0304329 0.0316794 0.021854 0.0304329 
0.0317082 0.0220212 0.030419 0.0318773 0.0223104 0.0304731 0.0319401 0.0223188 0.0304814 
0.0321054 0.022914 0.0304203 0.0323084 0.0234393 0.0303906 0.0323302 0.0234843 0.0303951 
0.0323526 0.0235517 0.0303978 0.0324417 0.0238578 0.0303634 0.0326166 0.0245148 0.0304254 
0.0326171 0.0245186 0.0304244 0.0326171 0.0245186 0.0304244 0.0327427 0.0250845 0.0303469 
0.0328208 0.025418 0.0303698 0.0328407 0.0255534 0.0303113 0.0328705 0.0257344 0.0303469 
0.0329635 0.026373 0.0303291 0.0329748 0.0268552 0.0302983 0.0329749 0.027126 0.0302566 
0.0330054 0.0272445 0.0302727 0.0330084 0.028004 0.0302647 0.0329615 0.0286235 0.0302235 
0.032893 0.0292409 0.0302424 0.0328606 0.0294386 0.0302283 0.0328491 0.0297349 0.0302187 
0.0328028 0.0300352 0.030202 0.0327503 0.0301976 0.0301807 0.0326561 0.030721 0.0301625 
0.0325523 0.0310005 0.0301811 0.0325523 0.0310005 0.0301811 0.032413 0.0314258 0.0301527 
0.0323787 0.0315748 0.0301528 0.0321494 0.0322854 0.0300968 0.0321242 0.0323853 0.0300821 
0.0318257 0.0330701 0.0300861 0.0318028 0.0331236 0.0300729 0.031532 0.0336635 0.0300211 
0.0314637 0.0338752 0.0300437 0.0312092 0.0342922 0.029984 0.0312538 0.0342762 0.0300264 
0.031044 0.0346216 0.0299745 0.0308563 0.0349935 0.0300008 0.030677 0.0352628 0.0299592 
0.0304104 0.035752 0.0299845 0.030098 0.0361786 0.0299377 0.0297437 0.0366841 0.0299144 
0.0296758 0.0367829 0.0299188 0.0293303 0.0372314 0.0299486 0.0293094 0.0372579 0.0299544 
0.0290084 0.0376591 0.0299063 0.0288115 0.0378862 0.0299077 0.0286317 0.0381392 0.0298922 
0.0285812 0.038196 0.0299002 0.0281733 0.0385992 0.0299131 0.0279134 0.038822 0.0299041 
0.0278066 0.03897 0.0298942 0.0274149 0.0393767 0.0298715 0.0273777 0.0394222 0.0298788 
0.0271546 0.0396532 0.0298641 0.0270071 0.0397237 0.0298452 0.0269932 0.0398016 0.029901 
0.0265011 0.0401725 0.0298771 0.0261712 0.0404156 0.0299171 0.0261437 0.0404425 0.0299259 
0.0259914 0.0406043 0.0298751 0.0256511 0.040826 0.0298325 0.0251715 0.0411703 0.0298622 
0.0247297 0.0414454 0.0298663 0.0245924 0.0415562 0.0298753 0.0241997 0.0418492 0.0298596 
0.0239228 0.0419862 0.0298753 0.0235347 0.0422056 0.0298518 0.0230135 0.0425037 0.0298494 
0.0229963 0.0425245 0.0298572 0.0227235 0.0425939 0.0298723 0.0224577 0.042776 0.0298834 
0.0219931 0.0429613 0.029858 0.0218793 0.0430391 0.0298603 0.0212903 0.0433022 0.0298622 
0.0210003 0.0433822 0.0298456 0.0206125 0.0435163 0.0298912 0.0200073 0.0437494 0.0298772 
0.0194253 0.043931 0.0298253 0.0190201 0.0440169 0.0298753 0.0190201 0.0440169 0.0298753 
0.0185151 0.0441552 0.0298702 0.0179794 0.0442861 0.0298746 0.0176545 0.0443595 0.0298229 
0.017573 0.0443327 0.0297978 0.0167698 0.044499 0.0299029 0.0162309 0.044572 0.0299176 
0.0158737 0.0446512 0.0298644 0.014937 0.044724 0.0299478 0.0145525 0.0448076 0.0299357 
0.0143466 0.044787 0.0299358 0.0140363 0.0448151 0.0299441 0.0137277 0.0448195 0.0299693 
0.0130732 0.0448269 0.0299965 0.0129346 0.0448468 0.0299936 0.012045 0.0448082 0.0300731 
0.0120246 0.0448125 0.0300762 0.0112289 0.0447338 0.0300498 0.0112117 0.0447356 0.0300495 
0.010729 0.0446888 0.0300454 0.0102678 0.0446124 0.030129 0.0100768 0.0446072 0.0301423 
0.00974227 0.0445372 0.0301462 0.00974 0.0445365 0.0301459 0.00946809 0.0445062 0.030132 
0.00875787 0.0443221 0.0301561 0.00837675 0.0442371 0.0302153 0.00837549 0.0442376 0.0302152 
0.00767453 0.0440246 0.0301545 0.00742054 0.044011 0.0302233 0.00736792 0.0439884 0.0301878 
0.00712269 0.0439181 0.0302139 0.00689867 0.0438587 0.0302299 0.00652532 0.0436888 0.0302937 
0.00602487 0.0435239 0.0302944 0.0058818 0.0434679 0.0303046 0.00563732 0.0433822 0.0302785 
0.00531053 0.0432494 0.0303314 0.00522619 0.0432204 0.0303279 0.00466622 0.0429176 0.030383 
0.00441122 0.0428139 0.0304129 0.00393222 0.0425853 0.0304165 0.00348552 0.0423361 0.0304652 
0.00304044 0.0420779 0.0305003 0.00302994 0.0420722 0.0304997 0.00266827 0.0417959 0.0304784 
0.00204727 0.0413863 0.0305422 0.00200099 0.0413442 0.0305543 0.00159973 0.0411302 0.0306045 
0.00125843 0.0407916 0.0305611 0.00124614 0.0407621 0.030556 0.000732785 0.0403988 0.0306135 
0.000603521 0.040283 0.030605 0.000175367 0.0399298 0.0306492 7.10629e-05 0.0397918 0.0305913 
-0.000285406 0.0394963 0.0306216 -0.000285406 0.0394963 0.0306216 -0.000307546 0.0394737 0.030627 
-0.000814845 0.0389547 0.0306635 -0.00081957 0.0389496 0.0306649 -0.00126438 0.0385372 0.0306534 
-0.00141027 0.0383839 0.0306775 -0.00173218 0.0380534 0.0306647 -0.00182195 0.0379525 0.030668 
-0.00207149 0.0375587 0.0306351 -0.002258 0.0374176 0.0307028 -0.00247851 0.0372096 0.0307011 
-0.00279056 0.0368479 0.0307102 -0.00304428 0.03649 0.0306305 -0.00326303 0.0362093 0.0307193 
-0.00357542 0.0358103 0.0307296 -0.00357542 0.0358103 0.0307296 -0.00371361 0.0356069 0.0307468 
-0.00394245 0.0352316 0.0306962 -0.00431451 0.0346554 0.0307074 -0.00431451 0.0346554 0.0307074 
-0.0044657 0.0344017 0.0307452 -0.00461958 0.0342648 0.0308352 -0.00490114 0.0336349 0.0307639 
-0.00491906 0.0335886 0.0307647 -0.00506565 0.033381 0.0307404 -0.00540551 0.0326339 0.0307614 
-0.0054799 0.0324846 0.0307641 -0.00576016 0.0318329 0.0307851 -0.0059108 0.0313069 0.0307932 
-0.0059108 0.0313069 0.0307932 -0.00595078 0.0312106 0.0307921 -0.00614042 0.0306391 0.0308328 
-0.00619515 0.0304371 0.0308507 -0.00635054 0.0299903 0.0309265 -0.00646489 0.0294823 0.0309028 
-0.00649854 0.0293133 0.0309306 -0.00657274 0.0289527 0.0309052 -0.00662626 0.0285625 0.0309196 
-0.00665719 0.0283221 0.0309524 -0.00665735 0.0283157 0.0309537 -0.00673857 0.0277361 0.030985 
-0.00673858 0.0277359 0.030985 -0.00679675 0.0271127 0.0309734 -0.0067971 0.0270445 0.0309729 
-0.00682405 0.0267851 0.0309655 -0.00682405 0.0267851 0.0309655 -0.00680956 0.0262282 0.0310442 
-0.00683533 0.0260146 0.0310626 -0.00683147 0.025982 0.031044 -0.00682768 0.0254962 0.0310662 
-0.00679416 0.0252426 0.0310584 -0.00680863 0.0249627 0.0310584 -0.00673812 0.0243458 0.0310901 
-0.00673402 0.0242154 0.0310879 -0.00667023 0.0237632 0.0311099 -0.00663149 0.0236248 0.0311214 
-0.00660017 0.0232772 0.0310727 -0.00648084 0.0228081 0.0311098 -0.00637498 0.022272 0.0311103 
-0.00630747 0.0220091 0.0311284 -0.00627435 0.0216917 0.0311046 -0.00626939 0.0216759 0.0311105 
-0.00626939 0.0216759 0.0311105 -0.00614436 0.0213772 0.0311408 -0.00595321 0.0207755 0.031138 
-0.00575029 0.0201266 0.0311568 -0.00566293 0.019909 0.0311778 -0.00553386 0.0195745 0.0311691 
-0.00543355 0.0193612 0.0311692 -0.0053284 0.0190652 0.0311561 -0.00518577 0.0187729 0.031141 
-0.00505561 0.0184152 0.0311218 -0.00478954 0.0178895 0.0311885 -0.00459807 0.0174688 0.0312032 
-0.00435881 0.0169948 0.0311885 -0.00410534 0.0164877 0.0311766 -0.00409114 0.0164598 0.0311805 
-0.00370026 0.0158441 0.031206 -0.00348406 0.0155449 0.0310669 -0.00331931 0.0151445 0.0311657 
-0.00329071 0.015101 0.0311444 -0.00296504 0.0146644 0.0311922 -0.00270901 0.0142679 0.0311912 
-0.00270901 0.0142679 0.0311912 -0.00254993 0.0140546 0.0312211 -0.00229086 0.013622 0.0311896 
-0.00212723 0.0134288 0.0311711 -0.0021253 0.0134258 0.0311706 -0.00170632 0.0129343 0.0311671 
-0.00160406 0.0128003 0.0311775 -0.00144566 0.012644 0.0311953 -0.00109089 0.0120955 0.0311079 
-0.000845578 0.0118777 0.0311127 -0.000337737 0.0113153 0.0310957 -0.000314447 0.0112904 0.0310957 
-0.000314447 0.0112904 0.0310957 -0.000199621 0.0111817 0.0310903 -0.000107367 0.0111015 0.0311077 
0.000558427 0.0104371 0.0310009 0.000569523 0.0104245 0.0309852 0.00111237 0.0099704 0.0308625 
0.00101726 0.00999269 0.0309252 0.00147064 0.0096203 0.0308116 0.0017125 0.00940854 0.0308081 
0.00215926 0.00909902 0.0307466 0.0023525 0.00890444 0.0307271 0.00237173 0.00888586 0.0307263 
0.00238891 0.00887058 0.0307233 0.00287333 0.00856166 0.0306364 0.00329682 0.0082592 0.0305832 
0.00364824 0.00807485 0.0305323 0.0038051 0.00796118 0.0304836 0.00439966 0.00757735 0.0303863 
0.00446659 0.00754668 0.0303829 0.00459883 0.00748585 0.0303729 0.00498965 0.00727438 0.0303327 
0.00541574 0.00700999 0.0302632 0.00542438 0.00700593 0.0302625 0.00592525 0.00672053 0.0302019 
0.00592525 0.00672053 0.0302019 0.00643071 0.00656005 0.0301447 0.00650152 0.0065283 0.0301364 
0.00650152 0.0065283 0.0301364 0.00653127 0.00651289 0.0301334 0.00677511 0.00641797 0.0301115 
0.00734292 0.0061579 0.0300272 0.00752437 0.00607245 0.0300269 0.00785287 0.00599845 0.0299513 
0.00822598 0.00584855 0.0299325 0.00831258 0.00580377 0.0299537 0.00873465 0.00565509 0.029936 
0.00873465 0.00565509 0.029936 0.00910391 0.00556432 0.0298683 0.00910391 0.00556432 0.0298683 
0.00946317 0.0054466 0.0298347 0.009801 0.00537516 0.0298245 0.0102139 0.00522545 0.0297445 
0.0107187 0.00514295 0.0297608 0.011311 0.00499643 0.0297037 0.0113515 0.00498722 0.0297028 
0.0114687 0.00495292 0.029681 0.0116831 0.00490333 0.0296908 0.0119221 0.00489375 0.0296976 
0.0119221 0.00489375 0.0296976 0.0127052 0.00477074 0.029628 0.0131813 0.00475042 0.0296061 
0.0134856 0.00470675 0.029609 0.0135383 0.00468795 0.0296275 0.0138792 0.00462959 0.029609 
0.0141491 0.00460908 0.0295875 0.0146793 0.00457367 0.0295589 0.0148818 0.00455492 0.0295646 
0.0152366 0.00458723 0.0295169 0.0155732 0.00455735 0.0295483 0.0159595 0.00455207 0.0295591 
0.0167577 0.00457634 0.0294861 0.017519 0.00463596 0.0294424 0.017519 0.00463596 0.0294424 
0.0177653 0.00466638 0.0294613 0.0179925 0.00470845 0.0294753 0.0179346 0.00468376 0.0294629 
0.0180664 0.00470986 0.0294793 0.0186244 0.00475213 0.0293988 0.0189867 0.00481755 0.0293986 
0.0191972 0.00484128 0.029379 0.0198408 0.00496024 0.0293742 0.02011 0.00501311 0.0293303 
0.0207977 0.00518977 0.0293441 0.0209408 0.00520819 0.0293344 0.0210192 0.00520833 0.0293355 
0.0216475 0.00537047 0.029285 0.0218226 0.00542158 0.0292709 0.0223973 0.00565966 0.0292866 
0.0224699 0.00569414 0.0292719 0.0229849 0.00585344 0.0292345 0.0231998 0.00592382 0.0291986 
0.0236143 0.00608824 0.0291669 0.0236505 0.00611737 0.0291641 0.0241951 0.0064049 0.0291601 
0.0247119 0.00662684 0.0291544 0.0247208 0.00662877 0.0291548 0.0248391 0.00667422 0.029133 
0.0252928 0.00689885 0.0290694 0.0254954 0.00700767 0.0290871 0.0254954 0.00700767 0.0290871 
0.0259691 0.00726515 0.0290661 0.0263737 0.00747313 0.0290483 0.0261261 0.00737124 0.0290742 
0.0264395 0.00752595 0.0290361 0.0267927 0.00774214 0.0289887 0.0273093 0.0080901 0.0289832 
0.0275016 0.00820872 0.028961 0.0278955 0.00847799 0.0289659 0.0280206 0.00853839 0.0289534 
0.0285086 0.00882246 0.0289416 0.0290797 0.00925453 0.0289138 0.0292622 0.00942433 0.0289236 
0.0296302 0.00967467 0.0288613 0.0299856 0.00990266 0.0288684 0.0306035 0.0103572 0.0288766 
0.0307781 0.0105323 0.0288862 0.0312536 0.0109383 0.0287951 0.0319685 0.0113993 0.0288571 
0.0319685 0.0113993 0.0288571 0.0319843 0.011402 0.0288596 0.0323934 0.0117506 0.028836 
0.0326449 0.0119137 0.0288234 0.032691 0.0119618 0.0288252 0.0332747 0.0123632 0.0288671 
0.033423 0.0124453 0.0289254 0.0338693 0.0128569 0.0288492 0.0340001 0.0129597 0.028865 
0.0343757 0.01323 0.0288491 0.0343757 0.01323 0.0288491 0.0345521 0.0133805 0.0288542 
0.0346338 0.0134469 0.0288598 0.0347607 0.0135126 0.0288554 0.035374 0.0139682 0.0288606 
0.0357711 0.0142498 0.0288765 0.0357711 0.0142498 0.0288765 0.0359202 0.0143824 0.0288839 
0.0364735 0.0146723 0.0288706 0.0370424 0.0150517 0.0288915 0.0371126 0.0150833 0.0288834 
0.0374953 0.0153114 0.0288816 0.0379702 0.015585 0.0288583 0.0380692 0.0156239 0.0288583 
0.0385772 0.0159546 0.0288755 0.0387606 0.0160342 0.0288781 0.0392713 0.0162806 0.0288655 
0.0393132 0.0163104 0.0288591 0.0398853 0.0165549 0.0288556 0.0404966 0.0168955 0.0289194 
0.0412309 0.0171675 0.0288891 0.0416787 0.0173376 0.0288652 0.0417167 0.0173581 0.0288621 
0.0418978 0.0174285 0.0288709 0.0424903 0.0176447 0.0289019 0.0425671 0.0176649 0.0288949 
0.0431402 0.0178416 0.0288879 0.0436391 0.0180057 0.0289171 0.04397 0.0181156 0.0289345 
0.04397 0.0181156 0.0289345 0.0439728 0.0181162 0.028935 0.0446654 0.0182464 0.0289418 
0.0447208 0.018273 0.0289421 0.0452125 0.0183909 0.0289378 0.0454354 0.0184526 0.028953 
0.0456381 0.0184954 0.0289367 0.0459838 0.0186412 0.0289915 0.0459838 0.0186412 0.0289915 
0.0465388 0.0186518 0.0289932 0.0465388 0.0186518 0.0289932 0.0465627 0.0186563 0.0289947 
0.0471007 0.0187219 0.0290215 0.0471007 0.0187219 0.0290215 0.0476 0.0187951 0.0291023 
0.047738 0.0188122 0.0291447 0.048488 0.0188949 0.0290905 0.0490104 0.0189475 0.0291197 
0.0490104 0.0189475 0.0291197 0.0492089 0.0189756 0.0291251 0.0492089 0.0189756 0.0291251 
0.0492746 0.0189786 0.0291179 0.0499374 0.0190634 0.029174 0.0505806 0.019072 0.0291615 
0.0509242 0.0190935 0.0291983 0.0514908 0.0191025 0.0292111 0.0516985 0.0191006 0.0292204 
0.0518536 0.0190845 0.0292696 0.0521522 0.0191252 0.0292684 0.0525045 0.0191116 0.0292808 
0.0531128 0.0191154 0.0293017 0.0531782 0.019101 0.0293135 0.053641 0.0191073 0.0293408 
0.053591 0.019111 0.0293526 0.0537467 0.0191032 0.02934 0.0540228 0.0191191 0.0293664 
0.0544209 0.0190836 0.0294003 0.0545318 0.0191131 0.0293777 0.054894 0.0191087 0.0294392 
0.0553579 0.0190443 0.0294214 0.0553866 0.0190341 0.029427 0.0559019 0.019043 0.0294711 
0.0564961 0.0190325 0.0294953 0.0565599 0.0190052 0.0295053 0.0571493 0.0189941 0.0295373 
0.0573447 0.0189665 0.029526 0.0578366 0.0189435 0.0295611 0.0584021 0.0189085 0.0296086 
0.0585738 0.0188618 0.0296168 0.0590989 0.0188402 0.0296561 0.05912 0.0188379 0.0296545 
0.0596739 0.0188046 0.0296674 0.060411 0.0187554 0.0297072 0.0604607 0.0187485 0.0297028 
0.0610529 0.0186838 0.0297499 0.0610913 0.0186774 0.0297499 0.0614761 0.0186479 0.0297726 
0.0616413 0.0186303 0.0297689 0.0622442 0.0185827 0.0298166 0.0622224 0.018546 0.0298421 
0.0628998 0.0185001 0.0298496 0.0629549 0.0185063 0.0298503 0.063472 0.0184459 0.0298364 
0.063472 0.0184459 0.0298364 0.0635207 0.0184383 0.0298285 0.0644012 0.0184112 0.0299304 
0.0646273 0.0183894 0.0299426 0.0646273 0.0183894 0.0299426 0.0651778 0.0183096 0.0299239 
0.0655765 0.0182894 0.0299759 0.0656631 0.0182994 0.0299584 0.0663405 0.0182246 0.0299568 
0.0665819 0.0182319 0.0299857 0.0672569 0.0181702 0.0299859 0.0672797 0.0181701 0.0299919 
0.0674922 0.0181653 0.0300028 0.0681455 0.0181002 0.0300179 0.0681625 0.0180975 0.0300164 
0.0688571 0.0180521 0.0300659 0.0693197 0.01802 0.0300426 0.0693613 0.0180105 0.0300405 
0.0699698 0.0180326 0.0300548 0.0701431 0.0180122 0.0300848 0.0702557 0.0179996 0.030091 
0.0707049 0.0179195 0.0301018 0.0708189 0.0179366 0.0300823 0.0708189 0.0179366 0.0300823 
0.0710834 0.0179638 0.0300805 0.0713424 0.0179944 0.0300638 0.072227 0.0179089 0.0301072 
0.0726457 0.0179436 0.0301372 0.0727289 0.0179514 0.0301376 0.0727289 0.0179514 0.0301376 
0.0727507 0.017961 0.0301395 0.0732777 0.0179164 0.030109 0.0739381 0.0179191 0.0300985 
0.0740942 0.0178979 0.0300986 0.0741834 0.0178879 0.0300839 0.0750119 0.0179304 0.0301225 
0.0751134 0.0179273 0.0301407 0.0752141 0.0179289 0.0301353 0.0759725 0.0179064 0.0300907 
0.076173 0.0179166 0.0301064 0.076165 0.01791 0.0301089 0.076869 0.017923 0.0301036 
0.0769992 0.0179411 0.0301011 0.0774784 0.0179291 0.0300945 0.0774784 0.0179291 0.0300945 
0.0774927 0.0179298 0.0300934 0.0776914 0.0179441 0.030103 
LINES 1 1059
1058 1057 1056 1055 1054 1053 1052 1051 1050 1049 1048 1047 1046 1045 1044 1043 1042 1041 1040 1039 1038 1037 1036 1035 1034 1033 1032 1031 1030 1029 1028 1027 1026 1025 1024 1023 1022 1021 1020 1019 1018 1017 1016 1015 1014 1013 1012 1011 1010 1009 1008 1007 1006 1005 1004 1003 1002 1001 1000 999 998 997 996 995 994 993 992 991 990 989 988 987 986 985 984 983 982 981 980 979 978 977 976 975 974 973 972 971 970 969 968 967 966 965 964 963 962 961 960 959 958 957 956 955 954 953 952 951 950 949 948 947 946 945 944 943 942 941 940 939 938 937 936 935 934 933 932 931 930 929 928 927 926 925 924 923 922 921 920 919 918 917 916 915 914 913 912 911 910 909 908 907 906 905 904 903 902 901 900 899 898 897 896 895 894 893 892 891 890 889 888 887 886 885 884 883 882 881 880 879 878 877 876 875 874 873 872 871 870 869 868 867 866 865 864 863 862 861 860 859 858 857 856 855 854 853 852 851 850 849 848 847 846 845 844 843 842 841 840 839 838 837 836 835 834 833 832 831 830 829 828 827 826 825 824 823 822 821 820 819 818 817 816 815 814 813 812 811 810 809 808 807 806 805 804 803 802 801 800 799 798 797 796 795 794 793 792 791 790 789 788 787 786 785 784 783 782 781 780 779 778 777 776 775 774 773 772 771 770 769 768 767 766 765 764 763 762 761 760 759 758 757 756 755 754 753 752 751 750 749 748 747 746 745 744 743 742 741 740 739 738 737 736 735 734 733 732 731 730 729 728 727 726 725 724 723 722 721 720 719 718 717 716 715 714 713 712 711 710 709 708 707 706 705 704 703 702 701 700 699 698 697 696 695 694 693 692 691 690 689 688 687 686 685 684 683 682 681 680 679 678 677 676 675 674 673 672 671 670 669 668 667 666 665 664 663 662 661 660 659 658 657 656 655 654 653 652 651 650 649 648 647 646 645 644 643 642 641 640 639 638 637 636 635 634 633 632 631 630 629 628 627 626 625 624 623 622 621 620 619 618 617 616 615 614 613 612 611 610 609 608 607 606 605 604 603 602 601 600 599 598 597 596 595 594 593 592 591 590 589 588 587 586 585 584 583 582 581 580 579 578 577 576 575 574 573 572 571 570 569 568 567 566 565 564 563 562 561 560 559 558 557 556 555 554 553 552 551 550 549 548 547 546 545 544 543 542 541 540 539 538 537 536 535 534 533 532 531 530 529 528 527 526 525 524 523 522 521 520 519 518 517 516 515 514 513 512 511 510 509 508 507 506 505 504 503 502 501 500 499 498 497 496 495 494 493 492 491 490 489 488 487 486 485 484 483 482 481 480 479 478 477 476 475 474 473 472 471 470 469 468 467 466 465 464 463 462 461 460 459 458 457 456 455 454 453 452 451 450 449 448 447 446 445 444 443 442 441 440 439 438 437 436 435 434 433 432 431 430 429 428 427 426 425 424 423 422 421 420 419 418 417 416 415 414 413 412 411 410 409 408 407 406 405 404 403 402 401 400 399 398 397 396 395 394 393 392 391 390 389 388 387 386 385 384 383 382 381 380 379 378 377 376 375 374 373 372 371 370 369 368 367 366 365 364 363 362 361 360 359 358 357 356 355 354 353 352 351 350 349 348 347 346 345 344 343 342 341 340 339 338 337 336 335 334 333 332 331 330 329 328 327 326 325 324 323 322 321 320 319 318 317 316 315 314 313 312 311 310 309 308 307 306 305 304 303 302 301 300 299 298 297 296 295 294 293 292 291 290 289 288 287 286 285 284 283 282 281 280 279 278 277 276 275 274 273 272 271 270 269 268 267 266 265 264 263 262 261 260 259 258 257 256 255 254 253 252 251 250 249 248 247 246 245 244 243 242 241 240 239 238 237 236 235 234 233 232 231 230 229 228 227 226 225 224 223 222 221 220 219 218 217 216 215 214 213 212 211 210 209 208 207 206 205 204 203 202 201 200 199 198 197 196 195 194 193 192 191 190 189 188 187 186 185 184 183 182 181 180 179 178 177 176 175 174 173 172 171 170 169 168 167 166 165 164 163 162 161 160 159 158 157 156 155 154 153 152 151 150 149 148 147 146 145 144 143 142 141 140 139 138 137 136 135 134 133 132 131 130 129 128 127 126 125 124 123 122 121 120 119 118 117 116 115 114 113 112 111 110 109 108 107 106 105 104 103 102 101 100 99 98 97 96 95 94 93 92 91 90 89 88 87 86 85 84 83 82 81 80 79 78 77 76 75 74 73 72 71 70 69 68 67 66 65 64 63 62 61 60 59 58 57 56 55 54 53 52 51 50 49 48 47 46 45 44 43 42 41 40 39 38 37 36 35 34 33 32 31 30 29 28 27 26 25 24 23 22 21 20 19 18 17 16 15 14 13 12 11 10 9 8 7 6 5 4 3 2 1 0 

POINT_DATA 1058
FIELD FieldData 3
Radius 1 1058 double
0.0023462472681 0.0023462542202 0.0023471162821 0.0023757477623 0.0023696374565 0.0023670509789 0.0023544302642 0.0023528058719 0.0023772906416 
0.0023772546956 0.0023918840367 0.0023519035524 0.0024146920675 0.0024017671663 0.0023578076366 0.0023584430339 0.0023546764366 0.0023759879468 
0.0023759848427 0.0023757292783 0.0023714989784 0.0023709241537 0.0023659806381 0.0023550167414 0.0023658745234 0.0023701504139 0.0023664772569 
0.002366505006 0.0023665732846 0.0023753754497 0.0023802184428 0.0023877864688 0.0023895203732 0.0023671118722 0.0023717484258 0.0023719001431 
0.0023536707101 0.0024190305496 0.002424202259 0.0023724976327 0.002368479588 0.0024167159603 0.0023530468128 0.0023649281037 0.0023718839166 
0.0023718750995 0.0023713328447 0.0023885320549 0.0023946089947 0.0023742328724 0.0023675488081 0.0023675622527 0.0023709099525 0.0023655327384 
0.0023811461116 0.002379617157 0.0023640056584 0.002368451586 0.0023723220175 0.0023736868122 0.0023664557056 0.0023637146753 0.0023672245629 
0.0023720523555 0.0023720527202 0.0023721435282 0.0023859702475 0.0023850170699 0.0023759875591 0.0023625012945 0.0023826704302 0.0023748195849 
0.0023784771904 0.0023874624265 0.0023892064844 0.0023885464745 0.0023858728599 0.0023785389059 0.0023748850489 0.002380841622 0.0023795732733 
0.0023674781888 0.0023619869757 0.0023601139119 0.0023698959025 0.0023955468795 0.002395402559 0.0023737583273 0.0023666517521 0.0023794563582 
0.0023876759963 0.0023830675568 0.0023825504882 0.0023750672224 0.0023593791822 0.0023594398633 0.0023766130312 0.0023743943021 0.0023681713187 
0.0023580672185 0.002358113415 0.0023725192336 0.0023748384043 0.0023673156094 0.00235952078 0.0023596133489 0.0023826630153 0.0023842915207 
0.0024034291594 0.0023703061791 0.0023769781573 0.0023837718386 0.0023900670941 0.0023671942282 0.0023792188152 0.0024049322949 0.002397913292 
0.0023851336425 0.0023852632274 0.0023855571587 0.0023736611923 0.0023577822708 0.0023746207398 0.0023811842698 0.0023736658119 0.0023721613806 
0.0023706874732 0.002358448429 0.0023638364445 0.0023646546416 0.0023709389232 0.0023719396918 0.0023731769619 0.0023623918458 0.002360909011 
0.002358035569 0.0023933015921 0.0023787217103 0.0023620665168 0.0023619662226 0.0023831097185 0.0023772066294 0.002373150962 0.0023527876415 
0.0023527581817 0.0023520511481 0.0023503031115 0.0023816161811 0.0023816329101 0.002385798429 0.0023804240679 0.0023500540586 0.0023523781164 
0.0023654206877 0.0023733789336 0.0023796812312 0.0023746932779 0.0023722747036 0.002365635891 0.0023637643151 0.0023570022022 0.0023668937508 
0.0023745307021 0.002376209207 0.0023762488872 0.0023694128897 0.0023608226993 0.0023647258673 0.0023770701715 0.0023861638926 0.0023644490723 
0.0023609066923 0.0023609468301 0.0023709411411 0.0023842668695 0.0023878809079 0.0023628982513 0.0023780859526 0.0023780857471 0.0023780345791 
0.0023816741564 0.0023601323868 0.0023644521097 0.0023604938981 0.0023641680494 0.0023713582824 0.002368300148 0.0023711807704 0.0023667070665 
0.0023659021823 0.0023741781608 0.0023758835949 0.0023560691777 0.0023562322571 0.0023662616409 0.0023785227944 0.0023861575162 0.0023767317462 
0.0023542967491 0.002377403307 0.0023774779477 0.0023862148478 0.0023860930122 0.0023826325558 0.0023824839819 0.002353891712 0.0023721352883 
0.0023709601082 0.0023576103452 0.002358172677 0.0023741336606 0.0023747077624 0.002367970441 0.0023555892421 0.0023556951072 0.002360882497 
0.0023637669353 0.0023640138918 0.0023713823212 0.0023806980318 0.0023778465449 0.0023704170585 0.00238982987 0.002351281152 0.0023736063782 
0.0023771308302 0.002375727137 0.0023865561473 0.0023682321723 0.0023810444981 0.0023837004932 0.0023808671495 0.0023781628517 0.0023782382555 
0.0023828755852 0.0023650990335 0.0023736829772 0.0023975042776 0.0024018968068 0.0023979603131 0.0024137976786 0.0024209373704 0.0023782967897 
0.0023660784925 0.0023742008174 0.0023865654799 0.0023562646776 0.0023687573504 0.0023759152078 0.0023742240757 0.0023814431099 0.0023851207152 
0.0024103834049 0.0024079859609 0.0023859030907 0.0023689341109 0.0023724725034 0.0023670229962 0.0023691508125 0.0023712611802 0.0023730046289 
0.0023714908509 0.0023759030116 0.0023788087838 0.0023800750956 0.0023570262264 0.0023645186049 0.0023748969254 0.0023632458534 0.0023919292681 
0.0023726003228 0.0023726004054 0.0023726209686 0.0023595637536 0.0023948817056 0.0023909966818 0.0023670781792 0.0023688136758 0.002368854727 
0.0023686574218 0.0023606336776 0.002368470716 0.0023808708976 0.0023843285767 0.0023845629811 0.0023747038483 0.0023618413163 0.0023617454426 
0.0023608195088 0.0023574756491 0.0023713572602 0.0023723738237 0.0023610246188 0.0023608492254 0.0023737081989 0.0023686681952 0.0023580360643 
0.0023631260023 0.0023641754002 0.0023798129828 0.0023794648411 0.002369137881 0.0023691892258 0.002354014124 0.0023539809523 0.0023526315806 
0.0023568159552 0.0023691984441 0.0023967783477 0.0023903233612 0.0023784906415 0.0023930507468 0.002393234645 0.0023662785367 0.0023631172697 
0.0023734375792 0.0023747508852 0.0023825278449 0.0023737984874 0.0023751997491 0.0023772965186 0.0023705008667 0.0023613175367 0.002357679104 
0.0023718831907 0.0023715579704 0.0023670350353 0.0023879671022 0.0023892835374 0.0023862416959 0.0023731792546 0.0023726084566 0.0023537692148 
0.0023760307666 0.002386463267 0.0023880814482 0.0023880808476 0.0023879313146 0.0023870860494 0.0023615167765 0.0023713445359 0.0023903448792 
0.0023729782332 0.002375240316 0.0023627350107 0.0023777784443 0.0023795143554 0.0023512762215 0.0023512690698 0.002350382267 0.0023698440337 
0.0023787934028 0.0023792683872 0.0023769733871 0.0023610406116 0.0023536102524 0.0023538570133 0.0023624231398 0.0023802346243 0.002380225519 
0.0023779582889 0.0023582806621 0.0023587259631 0.0023847165363 0.0023953460589 0.0023901139601 0.0023518131678 0.0023526172873 0.0023623168007 
0.0023637197418 0.002377174843 0.0023890049868 0.0023962800134 0.0023493239895 0.0023569431693 0.0023569532171 0.0023594551252 0.0023768403673 
0.0023693917605 0.0023652647652 0.0023642149457 0.0023823841586 0.0023833867461 0.0023833024818 0.0023623206722 0.002391501847 0.0023986041563 
0.0023822364021 0.0023827835687 0.0023757927787 0.0023688761922 0.0023508290355 0.0023745664912 0.0023749862675 0.0023790023326 0.0023909080139 
0.0023849587919 0.0023667911985 0.0023734680009 0.002375396959 0.0023655466135 0.0023720181812 0.0023740933358 0.0023588435729 0.0023669370631 
0.0023675228578 0.0023724437582 0.0023793381275 0.0023860095502 0.0023699618325 0.002383191304 0.0023728269172 0.0023683223611 0.0023599084049 
0.0023624498385 0.0023596030538 0.0023766302255 0.0023774706425 0.0023618610894 0.0023618597274 0.0023615205723 0.0023639765285 0.0023635073391 
0.0023539857048 0.0023662312784 0.0023676002439 0.0023637067436 0.0023669417445 0.0023740187794 0.0023740274098 0.0023747379801 0.0023847362381 
0.0023793286802 0.0023711935638 0.0023744221611 0.0023533837275 0.0023589773035 0.0023662627482 0.0023736294087 0.0023740831792 0.0023727666335 
0.0023610983263 0.0023932730999 0.0023948161563 0.0023939966992 0.0023789477519 0.0023633225172 0.0023685173031 0.0023758637585 0.0023758787019 
0.0023658089714 0.0023687092933 0.0023598965614 0.0023541531941 0.0023751688127 0.0023625768508 0.0023562194539 0.0023536827903 0.0023536816938 
0.0023536279628 0.0023754296106 0.0023853025968 0.0023624589988 0.0023557359546 0.0023540781508 0.0023553569581 0.0023555438004 0.0023749016782 
0.0023906130552 0.0023877948896 0.002364866965 0.0023693404385 0.0023691624394 0.0023635017611 0.0023696067543 0.0023795776671 0.0023811762205 
0.0023802133555 0.0023763100839 0.0023752057521 0.0023708834104 0.0023940861951 0.0023844722601 0.0023626249085 0.0023628478594 0.0023571560928 
0.0023629584797 0.0023636975325 0.0023768659167 0.0023599021754 0.0023599877952 0.0023634696675 0.0023672591776 0.0023650872827 0.0023677102349 
0.0023786731125 0.0023785565572 0.0023832265879 0.0023579782862 0.0023959187686 0.002402177374 0.0023652501375 0.0023620390852 0.0023624251183 
0.0023705619663 0.0023715579629 0.0023681462128 0.0023766803374 0.0024007151133 0.0023997068477 0.0023697840224 0.0023574953256 0.0023591780141 
0.0024088565412 0.0023644058339 0.0023652983756 0.002351986177 0.0023774742472 0.0023848660086 0.0023959993885 0.0024091335451 0.0023580107948 
0.0023592140693 0.002364927137 0.0023798935259 0.0023883655788 0.0023768459422 0.0023546741008 0.0023516457336 0.0023719580115 0.0023755474144 
0.002373348512 0.0023645586325 0.002358405346 0.00236884507 0.0023717086385 0.0023523764079 0.0023566037042 0.0023771333644 0.002374312774 
0.002368086364 0.0023686885343 0.0023692036567 0.0023876975186 0.0023767076576 0.0023765829706 0.0023736111838 0.0023729070245 0.0023693786718 
0.0023748680784 0.0023743673607 0.0023591602129 0.0023591860599 0.0023649893328 0.0023722864465 0.0023724857895 0.0023805924043 0.0024015551315 
0.0023553791477 0.0023689507312 0.0023863649395 0.0023827945327 0.0023780576392 0.0023778958297 0.0023636162122 0.0023670178598 0.0023677164617 
0.0023709926095 0.0023718958337 0.0023674816654 0.00236361337 0.0023648879231 0.00237408262 0.0023773670418 0.0023715598875 0.0023769511085 
0.0023786721611 0.002379617344 0.0023667531603 0.0023662338465 0.00236101893 0.0023657725426 0.0023641274985 0.002375959213 0.0024000612795 
0.0023982210612 0.0023582587945 0.0023659117077 0.0023793658468 0.0023788153343 0.0023628124474 0.0023638893347 0.0023651893624 0.0023727434219 
0.0023726821279 0.0023778326129 0.002385800784 0.0023824047546 0.0023700694441 0.0023758488302 0.0023769605131 0.0023766510965 0.0023782391807 
0.0023779051911 0.0023500116346 0.0023513272421 0.002349438664 0.0023768218607 0.0023732409947 0.0023688495781 0.0023589944761 0.0023694196623 
0.0023674176764 0.0023859568773 0.0023856956589 0.002357904766 0.0023633828718 0.00237033504 0.0023643763852 0.00237209957 0.0023772854824 
0.0023697236241 0.0023690220614 0.0023748792884 0.0023760368619 0.0023760168376 0.0023589427768 0.0023647490121 0.0023958084941 0.0023966532787 
0.0023926187416 0.0023747275423 0.002355266863 0.0023565519742 0.0023856027951 0.0023741759988 0.0023572570846 0.0023538251411 0.0023568653235 
0.0023705668635 0.0023692422426 0.0023657496307 0.0023549375782 0.0023616130211 0.002405679992 0.0023908521185 0.0023721847316 0.0023684488626 
0.0024008030302 0.0024004024306 0.0023685218514 0.0023608034881 0.0023740631264 0.0023736915741 0.0023701708883 0.0023769330821 0.002390007029 
0.00240466394 0.0023868099872 0.0023865029743 0.0023756207035 0.0023763585173 0.0023706720463 0.0023623980889 0.0023610176196 0.0023911425963 
0.0023902967371 0.0023796461892 0.0023802460449 0.0023746969999 0.0023798483004 0.0023773625744 0.0023771073159 0.0023668461816 0.0023612249604 
0.0023874692426 0.0023885932338 0.002390318882 0.0023724206783 0.0023803949864 0.0023790857348 0.0023778497041 0.002377239153 0.0023768271453 
0.0023597387451 0.0023698430061 0.002369864495 0.0023704096867 0.0023746921356 0.00236644914 0.0023654193 0.0023871395538 0.0023639508043 
0.0023680415781 0.0023680376977 0.0023686675876 0.0023864934828 0.0023872954126 0.0023613276773 0.002364648757 0.0023644053049 0.0023735622102 
0.0023750400939 0.0023602586949 0.0023608735165 0.0023710872311 0.0023710846714 0.0023704473059 0.002386657982 0.00238654786 0.0023546322598 
0.002357213122 0.00236359202 0.0023792752461 0.0023860139221 0.0023728691171 0.0023600565607 0.0023634927582 0.0023762126638 0.0023746478676 
0.0023711956378 0.0023673001372 0.0023759795627 0.0023754537952 0.002354042386 0.0023542191732 0.0023761407934 0.0023894024835 0.0023821236822 
0.0023819603662 0.0023814895913 0.0023767816014 0.0023818314307 0.0023774651937 0.0023516666892 0.0023516626328 0.0023506525845 0.0023714711692 
0.0023780788804 0.0023906183486 0.0023885512539 0.0023551744909 0.002356799935 0.0023747790447 0.0023815924407 0.0023856001021 0.0023709059662 
0.0023709036427 0.0023666379563 0.0023705133801 0.0023733358506 0.0023771282365 0.0023715809931 0.0023735027256 0.0023732478494 0.0023743337985 
0.0023863444003 0.0023796110519 0.0023541954935 0.0023565822736 0.0023702291042 0.0023795801788 0.0023770159235 0.0023513304664 0.0023647845699 
0.0023863419064 0.002387235215 0.0024027386979 0.0024023869987 0.0023734304312 0.0023608550975 0.0023772115525 0.0024012981649 0.0023736719958 
0.0023613317388 0.0023554438545 0.0023597340303 0.0023836819702 0.0023763502894 0.0023714991624 0.0023670917318 0.0023739541644 0.0023728434965 
0.0023785952643 0.002379416412 0.0023999874146 0.0024047961212 0.0023569740245 0.0023642869752 0.0023643300962 0.0023750672359 0.0023761714491 
0.0023766889778 0.0023795443843 0.0023693158572 0.0023810664188 0.0023988018024 0.0024001973347 0.0023671451693 0.0023835103669 0.0023890173053 
0.0023891290147 0.0024169446707 0.0024276296776 0.0023538474832 0.0023593241563 0.0023746447695 0.0023829896605 0.0023958788408 0.0023892941709 
0.0023558516742 0.0023556576527 0.0023540426076 0.0023556183905 0.0023865677805 0.002378565196 0.0023672609292 0.0023641965516 0.0023764947021 
0.0023778016048 0.0023746881912 0.0023791877395 0.0023620803193 0.0023613379437 0.0023578917024 0.0023677823191 0.0023705144299 0.0023782098 
0.0023789091593 0.002379084114 0.0023767115562 0.0023677130041 0.0023738445647 0.0023718416429 0.0023647382105 0.0023686582151 0.0023806547189 
0.0023793823627 0.002355287961 0.0023580865881 0.0023590644245 0.0023733577774 0.0023875188243 0.0023608210495 0.0023853925732 0.0023945254755 
0.0023979904006 0.0023812071927 0.0023761274517 0.002374741317 0.0023779953561 0.0023780842886 0.0023643262733 0.0023713051956 0.0023713725633 
0.0023839580222 0.0023643926411 0.0023639823744 0.0023626657703 0.0023669535271 0.0024063859191 0.0023893181705 0.0023630411363 0.0023630933458 
0.0023760934982 0.0023928281828 0.0023973040983 0.0024016851774 0.0023672975213 0.0023550914315 0.0023506389112 0.0023848931056 0.0023864799808 
0.0023752701116 0.0023686729985 0.0023676941071 0.0023772908103 0.0023737571824 0.0023834274268 0.0023778856862 0.0023657085508 0.0023673466899 
0.002387446618 0.0023856575135 0.0023743703452 0.0023757420532 0.0023717817429 0.0023703853566 0.0023726232414 0.0023710355785 0.0023618770521 
0.0023624983576 0.0023676505586 0.0023657761414 0.0023601681575 0.0023818817303 0.0023549102728 0.0023555928998 0.0023722204885 0.0023744196508 
0.0023768856233 0.0023671793147 0.0023777949222 0.0023784017205 0.00238578456 0.0023635417783 0.0023834046617 0.0024142837478 0.0023558404083 
0.0023571104893 0.0023642964927 0.0023787506054 0.0023823271787 0.0023905468369 0.0023810924168 0.0023685408006 0.0023543966602 0.0023568621677 
0.0023634000485 0.0023634731418 0.0023816733749 0.002394904167 0.0023907986835 0.0023628839128 0.0023668839466 0.0023955458763 0.0024167957616 
0.0023580162875 0.0023868643468 0.0023862646047 0.0023723138429 0.002374670106 0.0023720147395 0.0023658480931 0.0023721730978 0.0023700466481 
0.0023661003662 0.0023738010924 0.0024017867106 0.002359441055 0.0023654517573 0.0023708686113 0.0023678853736 0.0023647678636 0.0023633327936 
0.0023597134928 0.0023801977751 0.002389401398 0.0023893998555 0.0023892085864 0.0023703073845 0.0023622946518 0.002365413659 0.0023889773892 
0.0024093674154 0.0024219901635 0.0024213607978 0.0023644643324 0.0023644590891 0.0023631534967 0.0023650162 0.0023676226426 0.0024301772642 
0.0024553107268 0.0023574634012 0.0023611431853 0.0023656142451 0.0023826379653 0.002384542061 0.0023849312542 0.00240075797 0.0023565930207 
0.0023613999453 0.0023793017586 0.002380523419 0.0023536599036 0.0023533868464 0.0023530556076 0.002356370912 0.0023660373004 0.0023704955985 
0.0023690474372 0.0023637683957 0.0023544956179 0.0023554803427 0.0023732229861 0.0023882912538 0.0024097217926 0.0024148634608 0.0023671935699 
0.0023591609174 0.0023595301887 0.0023781124349 0.0023871273372 0.0023653853579 0.002359122378 0.0023603419717 0.0023703494635 0.0023698887037 
0.0023750324671 0.0023715358604 0.0023719972739 0.0023604554733 0.0023614104287 0.002366024066 0.0023626695363 0.0023666229614 0.0023675862466 
0.0023663250959 0.0023589555384 0.0024029930362 0.002403922013 0.0024067523814 0.0023854826291 0.0024041334007 0.0024041812534 0.0023971273238 
0.0023631082065 0.0023705055841 0.0023721944881 0.0023755961689 0.0023746782657 0.0023745901604 0.0023645324871 0.0023715716783 0.0023721478853 
0.0023763660773 0.0023886740444 0.0023900811897 0.0023840920405 0.0023707142067 0.0023791005181 0.0023791836838 0.0023819626485 0.0023818922063 
0.0023775600124 0.0023870137221 0.002385562324 0.0023875964419 0.0023870269609 0.0023854011002 0.0023821187446 0.0023623759128 0.0023727581212 
0.0023928943161 0.0023945232654 0.0023914793181 0.0023990180602 0.0023919077023 0.0023695971166 0.0023745984047 0.002374465742 0.0023710432895 
0.0023733250004 0.0023669985935 0.0023670053346 0.0023674199098 0.0023581440071 
EdgeArray 2 1058 int
8405 8405 7722 8405 7722 7722 8388 8388 8392 
8392 8330 8329 6226 6226 8527 7727 8395 8395 
9063 8397 8393 8393 7719 7719 9032 9032 9035 
9034 8411 8411 7834 8370 8149 9136 8653 8653 
8654 8653 8654 8654 9025 9025 9026 9026 8872 
8872 8870 8870 8651 8651 8648 8648 8233 8711 
8233 8414 8414 8531 8537 8537 8420 8420 8222 
8418 8237 8222 1655 1655 9122 9122 9121 9117 
8639 8639 8643 8643 8423 8423 8684 8686 8690 
8690 7582 7582 8218 8218 8703 8217 8703 8703 
8702 8703 8702 8702 7538 7538 8501 8501 9009 
8239 9012 9012 9010 9012 9010 9010 8636 8636 
9101 9101 8429 8429 8247 8247 3556 8879 8877 
8848 8876 8876 8632 8631 8434 8434 8435 8435 
8354 8354 8357 8354 8357 8357 7819 7819 7925 
7925 8441 8444 8441 8441 8437 8436 8352 8352 
8924 8924 8925 8923 8925 8450 8450 8450 9075 
9075 9073 9070 8624 8624 8629 8629 8521 8627 
8518 8519 3493 8883 3493 1859 8079 8079 8720 
8720 219 219 8455 8455 3902 7493 8345 8345 
8988 8728 8726 8987 8991 8726 8724 8724 7505 
7505 1782 7514 9113 9113 9109 9109 8735 8735 
7587 7508 8457 7508 8836 8836 8839 8839 8511 
8511 8458 8458 8249 8458 8249 8249 8974 8974 
8976 8976 7970 7970 254 254 8504 8504 8509 
8509 6016 6016 7731 7731 8748 8748 8749 8749 
8910 8910 8907 7497 7684 7684 8475 8475 1954 
1954 8252 8252 8755 8755 8757 8753 3900 3559 
7605 3900 8253 8253 9108 8254 9106 9108 9105 
9105 8479 8479 8174 7677 1856 1856 8187 8187 
8257 8257 3500 3500 8763 8763 6039 6039 6106 
8259 6227 6227 8769 8769 8483 8483 6329 6329 
6138 6329 6138 6138 8585 8585 8589 8589 8588 
8589 8588 8588 8781 8781 8773 8773 8548 8548 
8940 8550 8263 8263 8785 8785 8783 8783 8340 
8340 9038 9039 9042 9039 9042 8280 8565 8565 
8789 8789 8796 8796 8794 8798 8283 8283 6239 
8111 8110 8934 8579 8579 8581 8581 8301 8301 
8293 8293 8292 8293 8292 8292 8803 8804 8805 
8805 8551 8306 8303 8303 7743 8303 7743 7743 
7949 7949 6153 8859 7198 8858 7485 7485 6203 
8541 8540 8540 8559 8559 8561 8561 4394 3768 
6157 6157 8817 8817 8815 8815 8485 8485 8833 
8485 8833 8833 8831 8829 8829 8829 8594 8594 
1932 1932 8164 8164 7663 8671 8664 8664 8663 
8314 8492 8491 8487 8491 7662 7662 8318 8318 
8320 8322 8319 8319 6168 8162 63 6141 6263 
63 5032 5032 7204 7204 7205 7204 7205 7205 
7197 7225 7221 7225 7195 7195 6112 6112 7255 
7255 7349 7256 7178 7178 6904 6904 7352 7352 
7354 7354 7314 7353 6900 6900 5240 7258 7254 
7254 7275 7275 6927 6927 7454 7454 7452 7454 
7452 7452 5025 5025 7168 7168 7473 7457 7473 
7473 7478 7478 6897 6897 7388 7388 6926 6926 
7279 7279 7412 7278 7411 7411 6924 6924 6895 
6895 6893 6893 7237 7049 7242 7242 7239 7239 
7321 7321 7325 7322 7326 7326 5478 5478 6922 
7173 7419 7423 7425 7423 7425 7184 7184 7394 
7398 7398 7397 7397 6923 6923 1037 7436 4558 
4558 7374 7374 7431 7431 7291 7291 3340 3340 
7404 7404 7403 7404 7403 7403 7230 7230 7310 
7310 7308 7306 6532 6532 7267 7268 7267 7267 
7265 7267 7265 7265 6884 6884 6885 6496 6452 
769 6454 6454 6502 6502 5198 5198 6691 6456 
6451 6508 6497 6497 6785 6786 6784 6786 6694 
6694 6581 6693 6666 6666 6875 6875 3641 6572 
6445 3641 6445 6445 6687 6687 6686 6685 6679 
6679 6567 6025 6187 6187 6702 3156 6149 6701 
6770 6701 6768 6770 6768 6768 6767 6767 6561 
6561 6683 6020 6058 6717 6815 6127 6589 6269 
6667 6667 6759 6759 6674 6674 892 892 6802 
6802 6822 6822 6663 6820 6663 6664 6005 6005 
6462 6462 6870 6870 4616 4616 6756 5497 6824 
6829 6829 6828 6834 6834 6558 6833 4393 4393 
6703 6703 1427 1427 6601 6601 6598 6601 6598 
6598 6387 6598 6387 6387 6595 6595 3658 3658 
6881 6881 5968 5994 6009 6009 6698 5967 6698 
6436 6877 6877 6878 6877 6878 6878 6647 6647 
6720 6714 6649 6651 6649 6650 6002 6002 5502 
5502 6481 5502 6481 6481 4094 4094 6656 4094 
6656 6656 6591 6551 6590 6551 6842 6578 6578 
6839 6085 6838 5716 4872 6772 6524 5966 6521 
5966 6611 6611 6798 6798 6798 6808 6808 5828 
5828 4632 4632 5973 4632 5973 5973 6858 6858 
4355 4355 6619 6619 6846 6853 6848 6848 6729 
6729 6630 6729 6630 6630 4915 4915 6794 6794 
6448 6448 6734 6732 6735 6735 4970 4970 6469 
6469 6480 6480 6535 6536 779 779 6477 5590 
4126 4126 4993 4993 4621 880 5520 5520 757 
757 5550 5550 5551 5551 5112 5635 5603 5631 
5614 5607 5616 5616 5620 5620 5496 5496 5630 
5630 5629 5629 5752 5752 5596 3150 5089 5089 
4400 5245 5760 5613 5924 5924 5923 5927 5021 
5021 3716 5021 3716 3716 5647 5647 5644 5645 
5792 5792 5794 5794 5772 5771 5592 5592 4459 
4459 5649 5649 5648 5649 5648 5648 5764 5764 
5763 5763 5659 5659 5656 5657 5132 5871 5312 
5667 5666 5666 5664 5664 5581 5581 4350 4350 
5905 5905 5902 5903 5815 5056 5815 5816 5814 
5814 5680 5680 5685 5685 4038 4038 5574 5575 
5577 5577 5579 5579 5159 5159 4200 4200 5466 
5466 5569 5569 3563 3563 5875 5875 5876 5875 
5876 5876 5742 5742 5563 5563 5564 5564 5545 
5565 5547 5547 5546 5700 5700 5700 5699 5698 
5702 5702 5556 5556 5064 5064 5460 5708 5706 
5708 5706 5712 5894 5894 5895 5895 5827 5819 
5827 5715 5718 5826 5717 5824 5717 5802 5727 
5727 5737 5738 5735 5735 5722 5638 5436 5436 
5450 5452 5450 5530 928 928 2892 2892 1855 
2892 1855 1855 5009 5009 4172 5010 4207 4207 
1926 3614 3622 3211 4178 4178 4198 4198 4597 
4597 4594 4594 4184 4184 4186 4186 4181 4181 
4729 4727 4729 4730 4592 4592 4591 4591 4999 
4586 5003 4171 4236 4236 4022 4022 847 4579 
4584 4584 830 830 4059 4059 885 885 4566 
4566 4569 4573 4573 4573 4574 4574 3761 3761 
4280 4280 4497 4564 4564 4563 4283 4562 4562 
4031 4165 4165 3876 4716 4561 4561 4639 4639 
4638 4640 4264 4264 4709 4709 4713 4711 4714 
4714 4950 4950 4948 4948 2172 4161 2172 4275 
3784 3784 4547 4547 4546 4546 3867 3867 4606 
4606 3917 4605 4539 4539 4537 4540 4538 4538 
4293 4293 3133 3866 4608 4008 3603 4610 4298 
4298 4534 4534 4819 4534 4819 4819 4820 4820 
3081 3081 4525 4525 4766 4766 4765 4767 4767 
4112 3680 4112 4312 4312 4306 1143 3596 1143 
3582 4698 4319 3582 4319 3583 4321 4321 4322 
4324 4614 4614 4613 4615 4323 4323 4337 4329 
4523 4521 4522 4521 4334 4334 4335 4140 4140 
4141 4142 4142 4338 4338 4493 4493 4499 4516 
3593 4016 4314 4314 3442 3442 4756 4756 4755 
4752 4135 4135 4352 4353 1022 1022 3976 3976 
4123 4500 4506 4500 4505 4505 4354 4354 4124 
4124 4125 3932 650 650 4831 4243 3818 3818 
4357 4117 4121 4581 4483 4119 3568 3568 4490 
4490 4491 4491 3557 3557 4369 4369 4469 4469 
4468 4468 4742 4742 2672 4743 3383 3383 4374 
4375 486 486 4474 4047 4478 4478 4479 4481 
4385 4385 4387 4737 4739 4739 4738 4736 4736 
4806 4471 3702 4389 4389 4835 4837 4834 4836 
4609 4834 1391 1391 4465 4465 4466 4913 4403 
4403 4095 4095 4096 4096 4405 4405 4407 4408 
4052 4052 4051 4086 2096 2096 4089 4050 4410 
4410 3916 3916 4651 4651 4082 4082 4421 4421 
3808 3808 3848 4222 4222 4222 4168 4168 4432 
4432 3803 4431 4225 4938 4428 4428 4440 4440 
4223 4223 4447 4447 4446 4445 4691 4691 4689 
4689 4077 4077 3796 3796 4450 4450 4070 4070 
4065 4071 4063 4063 3496 3543 1860 1860 55 
55 2554 1522 1522 86 1359 1359 2528 1529 
2783 2783 2797 2870 2869 2869 2871 2872 2872 
2798 3104 3121 3121 3126 3130 3130 2819 2819 
3325 3325 3326 3324 3326 3326 3327 3149 3148 
3148 2824 2824 2941 2941 2938 2938 803 803 
859 1115 859 1114 2927 2927 2930 2930 3416 
2929 3109 1169 3111 1 1 2920 2921 2921 
2924 2924 2989 2766 991 2918 2831 2831 2828 
2831 2828 2828 3275 3275 3269 3274 2844 2844 
2846 2842 3281 3281 3279 3283 3279 3278 2749 
2749 2752 2752 2613 2613 989 1543 1291 1291 
2900 2903 2903 2903 2907 2907 2951 2951 3205 
3205 3204 3205 3204 3204 762 2896 2890 2890 
2756 2627 2756 2756 3197 3197 3203 3203 2954 
2954 3213 3213 3212 3213 3212 3212 3185 3185 
3188 3188 2893 2893 2895 1350 2737 2737 2621 
2621 3065 3065 3068 3067 3063 3063 2730 2730 
2884 2884 3172 3172 3175 3173 3175 3056 3056 
3056 2968 2968 2969 2878 2878 2964 3427 2876 
3428 3428 3315 3315 2974 2974 3095 2966 3216 
3216 3098 3217 2722 3096 2979 2979 3352 3352 
3350 3354 3354 2860 2861 2861 2811 2861 2811 
2811 1198 1198 3222 3222 3225 3225 2814 2810 
1199 1199 1560 1560 3179 3179 2995 2995 2990 
2990 2803 2803 1200 1200 3007 3007 3004 3004 
3265 3265 3266 3268 3382 2705 1212 3381 2857 
2857 1245 1245 2700 1245 2700 2700 3232 3232 
3231 3236 3238 3238 3012 2971 2967 2967 3000 
3011 3421 3421 1029 1029 3020 3020 3021 3021 
3025 3021 3025 3025 3244 3244 2688 2688 1284 
2687 906 3118 3250 183 3254 3254 3246 3246 
2684 2670 2684 905 1256 1256 2639 2639 171 
171 1101 1101 1317 3260 2642 3259 3290 3290 
3293 3293 3117 3117 3035 3035 2649 2649 737 
756 737 2650 3041 2650 3041 3044 3052 3053 
3051 3053 3051 3051 3050 3050 1545 1545 2851 
2851 2850 2657 2609 2609 2663 2602 2663 2665 
2664 2665 2666 2603 1536 2603 1565 1565 1568 
1566 1521 1521 1550 1550 1572 1572 1606 1573 
1601 1606 1603 1608 1607 1604 1604 1604 2043 
2043 2044 2166 1524 1524 1938 1934 1938 1938 
1941 1941 1620 1620 1622 1622 1619 1944 1927 
1927 1930 1930 796 796 1922 1922 2418 1922 
2418 2418 2422 2424 2424 2423 1628 625 2490 
2490 1913 1913 30 1685 2270 2270 2402 2402 
2399 2399 1672 1672 2405 175 2407 2407 2410 
2410 1673 1673 1361 359 1950 1950 1907 1907 
540 540 539 1903 2364 2364 1632 1632 1960 
1900 1960 1960 1964 1961 1964 1682 1682 1682 
1362 1362 1367 1364 1517 1519 1517 1517 1687 
1687 1688 1688 2259 2259 2079 2079 826 826 
7 7 1380 1380 1378 1379 2505 2505 2510 
2510 1973 721 1887 68 153 153 1979 1360 
1696 1360 2300 159 2299 2300 2299 2301 2302 
2302 155 155 1879 1354 1385 1385 1387 156 
1999 1999 2236 1999 2236 2236 2235 2234 1872 
1872 2229 2229 2230 2232 2232 2232 2226 2226 
1697 1697 2225 2225 2221 2221 1709 1709 1994 
1994 2472 1996 2212 2212 2214 2214 2215 1389 
1714 1714 1712 1712 444 444 1500 1500 1502 
1718 2046 2046 2049 2049 1400 1400 1402 1402 
1728 1728 2325 2325 2324 2324 2188 2324 2188 
2188 1732 1732 1736 1731 2334 2334 2335 2333 
2332 2335 580 1852 2068 1852 2066 2066 2065 
2066 2065 2065 1743 1743 2499 1743 2499 2499 
2497 2497 138 138 48 105 2431 105 2431 
2432 740 2432 2441 740 1745 1745 2100 2100 
1753 1753 2028 2028 1487 1487 1484 1488 243 
1484 91 91 1407 1410 367 367 1408 1408 
1483 1480 424 1481 127 424 1834 466 2344 
1836 2344 2344 2345 2125 2124 2124 473 473 
1827 1827 1828 1405 1384 1384 2134 2134 2130 
2130 1825 1825 1826 1414 1465 1465 1466 1467 
1468 1468 1820 1820 1417 1417 1418 1418 1462 
1462 1767 1767 1764 1764 1815 1815 331 252 
331 1423 1455 1455 1456 140 689 140 689 
689 2305 2305 2308 2307 1773 2307 1773 1769 
1449 1449 1453 1453 2540 2540 2543 2543 2370 
2370 2372 2373 2374 2374 2149 2149 2150 2150 
1654 1654 2549 2549 2155 2155 2154 2379 2380 
2380 2382 2382 2383 1786 2272 2272 2277 2272 
2277 2277 2278 2278 1645 1645 1656 1656 1432 
2162 2157 2162 2157 2313 26 26 2574 2574 
2572 2575 2572 2572 1791 2516 2517 2517 2513 
2513 2037 2037 2038 2040 2040 1434 1443 1443 
1798 1799 1804 1804 1803 1804 1803 1803 2294 
2294 
EdgePCoordArray 1 1058 double
0 0.992 0 0 0 0.056 0 0.344 0 
0.596 0 0 0 0.576 0 0.7 0.744 0 
0.988 0 0 0 0 0 0 0 0.024 
0.62 0.008 0 0 0.248 0.652 0 0 0.124 
0 0 0 0.96 0 0 0 0.632 0 
0.984 0 0 0 0.232 0 0.996 0 0 
0 0 0 0.552 0.168 0 0.264 0 0 
0 0.996 0 0 0 0.58 0 0.752 0 
0 0.404 0.6 0 0 0.308 0 0 0.76 
0.416 0.376 0.54 0 0 0 0 0.908 0 
0.808 0.312 0.672 0 0 0.004 0 0 0 
0.904 0.928 0 0 0 0 0.996 0 0 
0 0 0 0 0 0 0 0 0 
0 0.004 0 0 0 0 0 0.484 0.112 
0.888 0 0.06 0.928 0 0 0.94 0 0 
0 0 0 0 0.004 0 0 0 0 
0.96 0 0 0 0.996 0 0 0 0 
0.348 0 0 0 0 0.972 0.796 0.044 0 
0 0 0.996 0 0.264 0.808 0 0 0 
0 0.996 0 0.408 0 0.828 0 0.996 0 
0 0.368 0.3 0 0.508 0 0 0 0.676 
0 0 0 0 0.984 0 0.276 0 0 
0 0 0.012 0 0.464 0.932 0.94 0 0 
0.208 0 0.988 0.052 0.948 0 0 0.98 0 
0.832 0.892 0 0 0 0.98 0 0 0 
0 0.996 0 0.796 0 0 0 0 0.984 
0 0 0 0.232 0 0 0 0 0 
0 0.972 0 0 0 0 0.976 0 0 
0 0.84 0 0 0.132 0.932 0.352 0.236 0.024 
0 0 0 0.628 0 0 0 0 0 
0 0.996 0 0 0 0.128 0 0.024 0 
0.976 0 0 0.06 0.816 0 0 0 0.896 
0.084 0 0.712 0.512 0 0.988 0 0 0.368 
0.168 0 0 0.092 0 0.968 0 0.856 0.932 
0.716 0.912 0 0 0 0.2 0.096 0.948 0.388 
0 0 0 0 0 0 0.34 0.528 0 
0 0 0 0.468 0.672 0.176 0 0.972 0 
0 0 0 0.996 0 0.968 0 0 0 
0 0.956 0 0.716 0.048 0 0.992 0 0 
0.708 0.424 0.376 0 0 0.972 0 0 0.996 
0 0.352 0.312 0.156 0.572 0.48 0.52 0.508 0.088 
0.196 0.428 0 0 0 0 0.996 0 0 
0 0 0.172 0 0 0.996 0 0 0 
0 0.96 0 0 0 0 0.544 0 0.84 
0 0 0.004 0 0 0 0 0.556 0.232 
0.712 0 0 0 0 0 0 0.848 0 
0.064 0.828 0 0.036 0 0.996 0 0 0.98 
0 0 0.076 0 0 0 0.988 0 0 
0 0 0.08 0.16 0.304 0 0 0 0 
0 0.908 0.064 0.076 0 0 0 0 0.028 
0 0 0 0 0 0 0 0 0.98 
0 0 0 0 0.596 0 0.816 0 0.456 
0 0 0 0.884 0.848 0.14 0 0 0.852 
0.272 0.524 0.484 0.072 0 0.5 0 0.044 0 
0.028 0.06 0 0 0.976 0 0 0.956 0 
0.072 0.912 0 0 0 0 0 0 0 
0.388 0.328 0 0 0.824 0.696 0 0 0.1 
0 0 0 0 0 0.188 0 0 0 
0 0.144 0.504 0.428 0.748 0 0.228 0 0 
0.044 0 0 0.292 0 0 0 0.36 0.636 
0 0 0 0 0 0.992 0 0.9 0 
0 0.976 0.616 0.392 0 0 0.976 0 0 
0 0 0 0.84 0.98 0.996 0 0.224 0.532 
0.064 0.84 0.032 0 0.152 0 0.96 0 0.708 
0.328 0.2 0 0.308 0.356 0 0 0 0.632 
0.556 0 0 0 0.016 0 0.112 0 0 
0.908 0.536 0 0 0 0.832 0 0.976 0 
0.008 0.88 0.04 0 0 0 0 0 0 
0 0 0.94 0 0.684 0 0.94 0 0.196 
0 0.028 0 0.584 0.216 0.228 0 0.188 0.136 
0.796 0 0 0.104 0 0 0 0 0.06 
0 0.048 0 0.132 0 0 0 0 0 
0 0.016 0 0 0 0.18 0.18 0 0 
0 0 0.06 0 0 0 0 0 0 
0.972 0 0.964 0 0 0.916 0.232 0 0.38 
0 0.184 0 0.216 0.512 0.968 0.104 0 0 
0 0.004 0 0.352 0 0 0 0 0 
0.056 0.056 0 0 0.632 0.184 0.46 0.388 0 
0 0.264 0.772 0 0.996 0 0 0.992 0 
0.916 0 0.532 0.04 0 0 0 0.004 0 
0.584 0 0 0 0 0.992 0 0.176 0 
0.136 0 0 0 0 0 0.996 0 0 
0 0 0.008 0 0 0 0.408 0 0 
0 0 0.588 0.4 0 0 0.812 0.084 0.544 
0 0 0 0.8 0 0.596 0.532 0 0 
0.956 0.08 0 0.988 0 0 0 0 0.784 
0 0 0 0 0 0 0 0 0 
0 0.008 0.688 0.476 0 0 0.996 0 0 
0.028 0 0.284 0 0.836 0 0 0 0 
0.996 0 0 0 0.74 0.4 0.668 0 0 
0.336 0.428 0 0 0 0 0.232 0.324 0 
0 0 0 0 0.976 0.356 0.172 0.352 0.696 
0.296 0 0 0 0 0.004 0 0.68 0.824 
0.696 0.764 0.22 0 0.168 0 0 0 0.472 
0.96 0.564 0.78 0 0 0.036 0 0.024 0 
0 0 0 0.044 0 0 0 0 0.996 
0 0.36 0.424 0.856 0 0 0.932 0 0 
0 0 0.376 0 0 0 0.88 0 0 
0 0.176 0 0 0.236 0 0.332 0.328 0 
0 0.172 0.512 0 0 0 0 0 0 
0 0 0.7 0 0 0.56 0.848 0 0.32 
0.244 0.284 0.22 0.016 0 0 0.588 0 0.96 
0 0.996 0 0.468 0 0 0.08 0 0 
0 0 0 0 0 0.912 0 0 0.5 
0 0 0 0 0.416 0 0 0 0 
0 0 0 0.992 0 0 0.632 0 0.744 
0.848 0.944 0.912 0 0.996 0 0 0.96 0 
0 0 0.924 0.792 0.372 0.548 0.996 0 0 
0 0 0 0.012 0.968 0 0.168 0 0 
0.336 0.544 0.836 0.372 0.504 0 0.164 0 0 
0 0.04 0 0 0 0 0.172 0 0.988 
0 0 0 0 0 0 0 0 0.276 
0.268 0 0.932 0.848 0 0 0.948 0.916 0.084 
0 0 0 0 0 0.792 0 0 0 
0 0 0 0.028 0 0 0.004 0 0.984 
0 0 0 0 0.928 0.6 0.224 0 0 
0.332 0 0.488 0 0 0 0.548 0.892 0 
0.848 0 0.984 0 0 
